<?xml version="1.0" standalone="no"?>
<!DOCTYPE svg PUBLIC "-//W3C//DTD SVG 20010904//EN"
 "http://www.w3.org/TR/2001/REC-SVG-20010904/DTD/svg10.dtd">
<svg version="1.0" xmlns="http://www.w3.org/2000/svg"
 width="104.000000pt" height="104.000000pt" viewBox="0 0 104.000000 104.000000"
 preserveAspectRatio="xMidYMid meet">
<metadata>
Created by potrace 1.11, written by Peter Selinger 2001-2013
</metadata>
<g transform="translate(0.000000,104.000000) scale(0.100000,-0.100000)"
fill="#000000" stroke="none">
<path d="M461 1007 c-63 -22 -92 -94 -61 -152 18 -33 67 -58 101 -51 52 10 89
-5 150 -63 49 -47 59 -62 59 -89 0 -45 -14 -69 -69 -119 -46 -43 -93 -60 -133
-50 -29 8 -83 -16 -102 -46 -23 -34 -23 -89 0 -120 63 -87 194 -41 194 68 0
35 6 52 31 79 50 57 87 76 152 74 50 -2 60 1 86 26 37 36 46 74 28 117 -21 52
-42 64 -111 65 -68 0 -75 3 -135 56 -37 31 -43 43 -50 90 -10 70 -25 97 -66
114 -19 8 -36 14 -37 13 -2 0 -18 -5 -37 -12z"/>
<path d="M444 716 c-29 -29 -34 -41 -34 -79 0 -51 -23 -86 -88 -130 -32 -23
-47 -27 -88 -24 -90 7 -146 -52 -124 -133 15 -55 58 -82 122 -77 50 5 73 -5
137 -60 30 -26 35 -37 42 -93 6 -53 12 -68 35 -86 73 -59 176 -12 176 80 0 70
-50 111 -128 103 -35 -4 -51 0 -79 19 -66 44 -105 86 -111 120 -10 55 1 73 84
147 40 35 47 37 102 36 67 -2 101 14 123 59 35 72 -19 152 -104 152 -22 0 -41
-10 -65 -34z"/>
</g>
</svg>
