<?xml version="1.0" standalone="no"?>
<!DOCTYPE svg PUBLIC "-//W3C//DTD SVG 20010904//EN"
 "http://www.w3.org/TR/2001/REC-SVG-20010904/DTD/svg10.dtd">
<svg version="1.0" xmlns="http://www.w3.org/2000/svg"
 width="16.000000pt" height="16.000000pt" viewBox="0 0 16.000000 16.000000"
 preserveAspectRatio="xMidYMid meet">
<metadata>
Created by potrace 1.11, written by Peter Selinger 2001-2013
</metadata>
<g transform="translate(0.000000,16.000000) scale(0.004348,-0.004348)"
fill="#000000" stroke="none">
<path d="M1657 3609 c-47 -11 -113 -44 -151 -76 -188 -158 -183 -451 11 -599
88 -67 234 -95 329 -64 83 28 219 -12 309 -90 245 -211 279 -245 312 -307 63
-120 64 -234 2 -357 -23 -47 -58 -84 -159 -172 -30 -26 -57 -50 -60 -53 -25
-32 -156 -130 -200 -149 -61 -28 -146 -34 -260 -16 -179 27 -354 -86 -406
-263 -42 -144 -3 -289 104 -390 164 -154 427 -130 561 50 61 83 73 126 77 262
1 66 5 130 8 143 10 46 55 104 127 166 19 16 68 59 109 96 98 87 125 105 185
124 65 21 121 26 159 15 55 -16 159 -18 216 -3 106 28 200 109 248 213 22 48
26 70 26 156 1 94 -1 104 -33 167 -82 164 -253 243 -435 201 -119 -27 -227 9
-348 119 -20 18 -64 57 -98 87 -150 132 -163 156 -165 321 -2 133 -7 154 -48
233 -37 71 -115 140 -189 169 -59 23 -171 31 -231 17z"/>
<path d="M1730 2665 c-110 -31 -199 -107 -248 -213 -24 -51 -27 -71 -29 -186
-4 -195 -5 -196 -278 -436 -110 -97 -232 -135 -341 -106 -130 34 -279 -12
-374 -117 -104 -114 -123 -308 -44 -444 28 -48 101 -120 147 -145 75 -41 179
-55 264 -35 103 23 202 4 285 -55 24 -17 100 -82 169 -144 160 -143 169 -160
172 -342 3 -113 6 -133 29 -184 37 -80 107 -151 187 -191 60 -29 74 -32 161
-32 87 0 101 3 160 32 133 65 211 182 216 322 7 165 -72 298 -216 369 -47 23
-67 26 -145 26 -49 0 -119 -4 -155 -8 -54 -7 -76 -5 -130 14 -73 25 -104 46
-211 141 -41 37 -100 89 -132 115 -108 91 -157 191 -152 313 3 92 6 105 39
167 32 61 43 73 136 154 41 36 82 72 90 80 140 141 277 200 397 171 213 -51
409 60 469 265 80 278 -186 547 -466 469z"/>
</g>
</svg>
